# xmcd
#
# Track frame offsets: 
#        150
#        13566
#        28856
#        45140
#        59476
#        72179
#        86558
#        102168
#        118026
#        135547
#        150803
#        162569
#        174876
#        190216
#        206753
#        221059
#
# Disc length: 3142 seconds
#
# Revision: 0
# Processed by: cddbd v1.5.2PL0 Copyright (c) Steve Scherf et al.
# Submitted via: ExactAudioCopyFreeDBPlugin 1.0
#
DISCID=d20c4410
DTITLE=ยอดรัก สลักใจ - ดีที่สุด ยอดรัก สลักใจ แผ่นที่ 3 [SNA-CD-3002]
DYEAR=2008
DGENRE=Country
TTITLE0=ครูประชาบาล
TTITLE1=รักแท้แพ้รถ
TTITLE2=ขอสละรัก
TTITLE3=ทหารใหม่ไปกอง
TTITLE4=หลงเสียงนาง
TTITLE5=หนุ่มนารอนาง
TTITLE6=รักเก่าที่บ้านเกิด
TTITLE7=ห้องนอนคนจน
TTITLE8=ทหารบกพ่ายรัก
TTITLE9=นางกวักมหาเสน่ห์
TTITLE10=นางฟ้ายังอาย
TTITLE11=จำปาลืมต้น
TTITLE12=ฝากใจไว้อีสาน
TTITLE13=พลัดคู่
TTITLE14=ครูลำดวน
TTITLE15=ครูบนดอย
EXTD=
EXTT0=
EXTT1=
EXTT2=
EXTT3=
EXTT4=
EXTT5=
EXTT6=
EXTT7=
EXTT8=
EXTT9=
EXTT10=
EXTT11=
EXTT12=
EXTT13=
EXTT14=
EXTT15=
PLAYORDER=
